<?xml version="1.0" encoding="UTF-8" standalone="no"?>
<!DOCTYPE svg PUBLIC "-//W3C//DTD SVG 1.1//EN" "http://www.w3.org/Graphics/SVG/1.1/DTD/svg11.dtd">
<svg width="100%" height="100%" viewBox="0 0 256 256" version="1.1" xmlns="http://www.w3.org/2000/svg" xmlns:xlink="http://www.w3.org/1999/xlink" xml:space="preserve" xmlns:serif="http://www.serif.com/" style="fill-rule:evenodd;clip-rule:evenodd;stroke-linejoin:round;stroke-miterlimit:2;">
    <g transform="matrix(1.30491,0,0,1.29665,-35.274,-35.9978)">
        <path d="M223.214,83.29C223.214,52.643 198.49,27.762 168.038,27.762L82.208,27.762C51.755,27.762 27.032,52.643 27.032,83.29L27.032,169.667C27.032,200.314 51.755,225.195 82.208,225.195L168.038,225.195C198.49,225.195 223.214,200.314 223.214,169.667L223.214,83.29Z" style="fill:rgb(246,191,188);"/>
    </g>
    <g transform="matrix(1,0,0,1,1.72256,65.6921)">
        <g transform="matrix(144,0,0,144,54.6094,114.236)">
            <path d="M0.765,-0.028C0.664,-0.005 0.575,0.006 0.496,0.003C0.417,-0.001 0.351,-0.016 0.299,-0.043C0.246,-0.07 0.21,-0.109 0.189,-0.159C0.182,-0.174 0.182,-0.19 0.189,-0.205C0.196,-0.22 0.207,-0.231 0.222,-0.237C0.237,-0.244 0.253,-0.244 0.268,-0.237C0.282,-0.23 0.293,-0.219 0.299,-0.204C0.312,-0.175 0.338,-0.153 0.377,-0.138C0.416,-0.123 0.467,-0.115 0.529,-0.116C0.59,-0.116 0.66,-0.126 0.738,-0.145C0.754,-0.149 0.769,-0.147 0.783,-0.138C0.797,-0.129 0.806,-0.116 0.81,-0.1C0.813,-0.084 0.811,-0.069 0.802,-0.055C0.793,-0.041 0.781,-0.032 0.765,-0.028ZM0.673,-0.575C0.637,-0.584 0.599,-0.592 0.558,-0.597C0.517,-0.602 0.476,-0.604 0.436,-0.605C0.396,-0.606 0.359,-0.604 0.324,-0.601C0.307,-0.599 0.293,-0.603 0.28,-0.613C0.267,-0.623 0.259,-0.636 0.257,-0.653C0.255,-0.67 0.259,-0.685 0.269,-0.698C0.279,-0.711 0.292,-0.718 0.309,-0.72C0.349,-0.724 0.393,-0.725 0.441,-0.724C0.489,-0.722 0.536,-0.718 0.582,-0.713C0.627,-0.708 0.667,-0.701 0.701,-0.692C0.717,-0.687 0.729,-0.678 0.738,-0.665C0.747,-0.651 0.749,-0.636 0.745,-0.62C0.742,-0.604 0.733,-0.592 0.719,-0.583C0.704,-0.574 0.689,-0.571 0.673,-0.575Z" style="fill:rgb(100,116,139);fill-rule:nonzero;"/>
        </g>
    </g>
</svg>
