<?xml version="1.0" encoding="UTF-8" standalone="no"?>
<!DOCTYPE svg PUBLIC "-//W3C//DTD SVG 1.1//EN" "http://www.w3.org/Graphics/SVG/1.1/DTD/svg11.dtd">
<svg width="100%" height="100%" viewBox="0 0 256 256" version="1.1" xmlns="http://www.w3.org/2000/svg" xmlns:xlink="http://www.w3.org/1999/xlink" xml:space="preserve" xmlns:serif="http://www.serif.com/" style="fill-rule:evenodd;clip-rule:evenodd;stroke-linejoin:round;stroke-miterlimit:2;">
    <path id="add" d="M112,104C112,106.122 111.157,108.157 109.657,109.657C108.157,111.157 106.122,112 104,112L64,112C55.169,112 48,119.169 48,128C48,136.831 55.169,144 64,144L104,144C106.122,144 108.157,144.843 109.657,146.343C111.157,147.843 112,149.878 112,152L112,192C112,200.831 119.169,208 128,208C136.831,208 144,200.831 144,192L144,152C144,149.878 144.843,147.843 146.343,146.343C147.843,144.843 149.878,144 152,144L192,144C200.831,144 208,136.831 208,128C208,119.169 200.831,112 192,112L152,112C149.878,112 147.843,111.157 146.343,109.657C144.843,108.157 144,106.122 144,104L144,64C144,55.169 136.831,48 128,48C119.169,48 112,55.169 112,64L112,104Z"/>
</svg>
