<?xml version="1.0" encoding="UTF-8" standalone="no"?>
<!DOCTYPE svg PUBLIC "-//W3C//DTD SVG 1.1//EN" "http://www.w3.org/Graphics/SVG/1.1/DTD/svg11.dtd">
<svg width="100%" height="100%" viewBox="0 0 256 256" version="1.1" xmlns="http://www.w3.org/2000/svg" xmlns:xlink="http://www.w3.org/1999/xlink" xml:space="preserve" xmlns:serif="http://www.serif.com/" style="fill-rule:evenodd;clip-rule:evenodd;stroke-linejoin:round;stroke-miterlimit:2;">
    <path id="save" d="M112,143.719C112,145.337 111.025,146.795 109.531,147.414C108.036,148.034 106.316,147.691 105.172,146.547C95.009,136.385 77.088,118.464 77.088,118.464C70.844,112.22 60.705,112.22 54.461,118.464C48.217,124.708 48.217,134.847 54.461,141.091L116.686,203.317C118.782,205.413 121.316,206.805 123.995,207.494L124.003,207.496L124.074,207.514C125.33,207.831 126.645,208 128,208C129.355,208 130.67,207.831 131.926,207.514L131.997,207.496L132.005,207.494C134.684,206.805 137.218,205.413 139.314,203.317C139.314,203.317 201.539,141.091 201.539,141.091C207.783,134.847 207.783,124.708 201.539,118.464C195.295,112.22 185.156,112.22 178.912,118.464C178.912,118.464 160.991,136.385 150.828,146.547C149.684,147.691 147.964,148.034 146.469,147.414C144.975,146.795 144,145.337 144,143.719C144,120.604 144,64 144,64C144,55.169 136.831,48 128,48C119.169,48 112,55.169 112,64L112,143.719Z"/>
</svg>
