<?xml version="1.0" encoding="UTF-8" standalone="no"?>
<!DOCTYPE svg PUBLIC "-//W3C//DTD SVG 1.1//EN" "http://www.w3.org/Graphics/SVG/1.1/DTD/svg11.dtd">
<svg width="100%" height="100%" viewBox="0 0 512 512" version="1.1" xmlns="http://www.w3.org/2000/svg" xmlns:xlink="http://www.w3.org/1999/xlink" xml:space="preserve" xmlns:serif="http://www.serif.com/" style="fill-rule:evenodd;clip-rule:evenodd;stroke-linejoin:round;stroke-miterlimit:2;">
    <g transform="matrix(1.24829,0,0,1.23908,-44.7375,-45.1733)">
        <path d="M446,117.162C446,72.62 410.104,36.457 365.89,36.457L115.949,36.457C71.735,36.457 35.839,72.62 35.839,117.162L35.839,368.963C35.839,413.505 71.735,449.668 115.949,449.668L365.89,449.668C410.104,449.668 446,413.505 446,368.963L446,117.162Z" style="fill:rgb(117,198,195);"/>
    </g>
    <g transform="matrix(0.247487,0,0,0.247487,66,80.6154)">
        <path d="M885.821,413.386C870.16,413.386 855.141,407.165 844.067,396.091C832.993,385.017 826.772,369.997 826.772,354.336C826.772,275.759 826.772,137.626 826.772,59.05C826.772,43.389 820.55,28.369 809.476,17.295C798.402,6.221 783.383,-0 767.722,0C767.718,0 767.715,0 767.711,-0C752.05,-0 737.031,6.221 725.957,17.295C714.883,28.369 708.661,43.389 708.661,59.05C708.661,137.626 708.661,275.759 708.661,354.336C708.661,369.997 702.44,385.017 691.366,396.091C680.292,407.165 665.273,413.386 649.612,413.386C649.608,413.386 649.604,413.386 649.601,413.386C633.94,413.386 618.92,407.165 607.846,396.091C596.772,385.017 590.551,369.997 590.551,354.336C590.551,318.262 590.551,272.289 590.551,236.215C590.551,220.554 584.33,205.534 573.256,194.461C562.182,183.387 547.163,177.165 531.502,177.165C531.498,177.165 531.494,177.165 531.491,177.165C515.83,177.165 500.81,183.387 489.736,194.461C478.662,205.534 472.441,220.554 472.441,236.215C472.441,301.755 472.441,406.906 472.441,472.447C472.441,488.107 466.22,503.127 455.146,514.201C444.072,525.275 429.052,531.496 413.391,531.496C413.388,531.496 413.384,531.496 413.38,531.496C397.719,531.496 382.7,525.275 371.626,514.201C360.552,503.127 354.331,488.107 354.331,472.446L354.331,472.435C354.331,456.774 348.109,441.755 337.036,430.681C325.962,419.607 310.942,413.386 295.281,413.386L295.27,413.386C279.609,413.386 264.59,419.607 253.516,430.681C242.442,441.755 236.22,456.774 236.22,472.435C236.22,508.51 236.22,554.482 236.22,590.557C236.22,606.218 229.999,621.237 218.925,632.311C207.851,643.385 192.832,649.606 177.171,649.606C177.167,649.606 177.164,649.606 177.16,649.606C161.499,649.606 146.479,643.385 135.405,632.311C124.331,621.237 118.11,606.218 118.11,590.557L118.11,590.546C118.11,574.885 111.889,559.865 100.815,548.791C89.741,537.717 74.722,531.496 59.061,531.496L59.05,531.496C43.389,531.496 28.369,537.717 17.295,548.791C6.221,559.865 0,574.885 -0,590.546C0,656.086 0,761.237 0,826.777C0,842.438 6.221,857.458 17.295,868.532C28.369,879.606 43.389,885.827 59.05,885.827C59.053,885.827 59.057,885.827 59.061,885.827C74.722,885.827 89.741,879.606 100.815,868.532C111.889,857.458 118.11,842.438 118.11,826.777L118.11,826.766C118.11,811.105 124.331,796.086 135.405,785.012C146.479,773.938 161.499,767.717 177.16,767.717L177.171,767.717C192.832,767.717 207.851,773.938 218.925,785.012C229.999,796.086 236.22,811.105 236.22,826.766C236.22,862.84 236.22,908.813 236.22,944.888C236.22,960.548 242.442,975.568 253.516,986.642C264.59,997.716 279.609,1003.94 295.27,1003.94C295.274,1003.94 295.277,1003.94 295.281,1003.94C310.942,1003.94 325.962,997.716 337.036,986.642C348.109,975.568 354.331,960.548 354.331,944.887L354.331,944.876C354.331,929.215 360.552,914.196 371.626,903.122C382.7,892.048 397.719,885.827 413.38,885.827L413.391,885.827C429.052,885.827 444.072,892.048 455.146,903.122C466.22,914.196 472.441,929.215 472.441,944.876C472.441,1010.42 472.441,1115.57 472.441,1181.11C472.441,1196.77 478.662,1211.79 489.736,1222.86C500.81,1233.94 515.83,1240.16 531.491,1240.16C531.494,1240.16 531.498,1240.16 531.502,1240.16C547.163,1240.16 562.182,1233.94 573.256,1222.86C584.33,1211.79 590.551,1196.77 590.551,1181.11C590.551,1145.03 590.551,1099.06 590.551,1062.99C590.551,1047.33 596.772,1032.31 607.846,1021.23C618.92,1010.16 633.94,1003.94 649.601,1003.94C649.604,1003.94 649.608,1003.94 649.612,1003.94C665.273,1003.94 680.292,1010.16 691.366,1021.23C702.44,1032.31 708.661,1047.33 708.661,1062.99C708.661,1141.56 708.661,1279.7 708.661,1358.27C708.661,1373.93 714.883,1388.95 725.957,1400.03C737.031,1411.1 752.05,1417.32 767.711,1417.32C767.715,1417.32 767.718,1417.32 767.722,1417.32C783.383,1417.32 798.402,1411.1 809.476,1400.03C820.55,1388.95 826.772,1373.93 826.772,1358.27C826.772,1279.7 826.772,1141.56 826.772,1062.99C826.772,1047.33 832.993,1032.31 844.067,1021.23C855.141,1010.16 870.16,1003.94 885.821,1003.94C885.825,1003.94 885.829,1003.94 885.832,1003.94C901.493,1003.94 916.513,1010.16 927.587,1021.23C938.661,1032.31 944.882,1047.33 944.882,1062.99C944.882,1099.06 944.882,1145.03 944.882,1181.11C944.882,1196.77 951.103,1211.79 962.177,1222.86C973.251,1233.94 988.271,1240.16 1003.93,1240.16C1003.94,1240.16 1003.94,1240.16 1003.94,1240.16C1019.6,1240.16 1034.62,1233.94 1045.7,1222.86C1056.77,1211.79 1062.99,1196.77 1062.99,1181.11C1062.99,1115.57 1062.99,1010.42 1062.99,944.876C1062.99,929.215 1069.21,914.196 1080.29,903.122C1091.36,892.048 1106.38,885.827 1122.04,885.827C1122.05,885.827 1122.05,885.827 1122.05,885.827C1137.71,885.827 1152.73,892.048 1163.81,903.122C1174.88,914.196 1181.1,929.215 1181.1,944.876L1181.1,944.887C1181.1,960.548 1187.32,975.568 1198.4,986.642C1209.47,997.716 1224.49,1003.94 1240.15,1003.94L1240.16,1003.94C1255.82,1003.94 1270.84,997.716 1281.92,986.642C1292.99,975.568 1299.21,960.548 1299.21,944.888C1299.21,908.813 1299.21,862.84 1299.21,826.766C1299.21,811.105 1305.43,796.086 1316.51,785.012C1327.58,773.938 1342.6,767.717 1358.26,767.717C1358.27,767.717 1358.27,767.717 1358.27,767.717C1373.93,767.717 1388.95,773.938 1400.03,785.012C1411.1,796.086 1417.32,811.105 1417.32,826.766L1417.32,826.777C1417.32,842.438 1423.54,857.458 1434.62,868.532C1445.69,879.606 1460.71,885.827 1476.37,885.827L1476.38,885.827C1492.04,885.827 1507.06,879.606 1518.14,868.532C1529.21,857.458 1535.43,842.438 1535.43,826.777C1535.43,761.237 1535.43,656.086 1535.43,590.546C1535.43,574.885 1529.21,559.865 1518.14,548.791C1507.06,537.717 1492.04,531.496 1476.38,531.496C1476.38,531.496 1476.38,531.496 1476.37,531.496C1460.71,531.496 1445.69,537.717 1434.62,548.791C1423.54,559.865 1417.32,574.885 1417.32,590.546L1417.32,590.557C1417.32,606.218 1411.1,621.237 1400.03,632.311C1388.95,643.385 1373.93,649.606 1358.27,649.606L1358.26,649.606C1342.6,649.606 1327.58,643.385 1316.51,632.311C1305.43,621.237 1299.21,606.218 1299.21,590.557C1299.21,554.482 1299.21,508.51 1299.21,472.435C1299.21,456.774 1292.99,441.755 1281.92,430.681C1270.84,419.607 1255.82,413.386 1240.16,413.386C1240.16,413.386 1240.16,413.386 1240.15,413.386C1224.49,413.386 1209.47,419.607 1198.4,430.681C1187.32,441.755 1181.1,456.774 1181.1,472.435L1181.1,472.446C1181.1,488.107 1174.88,503.127 1163.81,514.201C1152.73,525.275 1137.71,531.496 1122.05,531.496L1122.04,531.496C1106.38,531.496 1091.36,525.275 1080.29,514.201C1069.21,503.127 1062.99,488.107 1062.99,472.447C1062.99,406.906 1062.99,301.755 1062.99,236.215C1062.99,220.554 1056.77,205.534 1045.7,194.461C1034.62,183.387 1019.6,177.165 1003.94,177.165C1003.94,177.165 1003.94,177.165 1003.93,177.165C988.271,177.165 973.251,183.387 962.177,194.461C951.103,205.534 944.882,220.554 944.882,236.215C944.882,272.289 944.882,318.262 944.882,354.336C944.882,369.997 938.661,385.017 927.587,396.091C916.513,407.165 901.493,413.386 885.832,413.386C885.829,413.386 885.825,413.386 885.821,413.386Z" style="fill:rgb(42,42,42);"/>
    </g>
</svg>
