<?xml version="1.0" encoding="UTF-8" standalone="no"?>
<!DOCTYPE svg PUBLIC "-//W3C//DTD SVG 1.1//EN" "http://www.w3.org/Graphics/SVG/1.1/DTD/svg11.dtd">
<svg width="100%" height="100%" viewBox="0 0 256 256" version="1.1" xmlns="http://www.w3.org/2000/svg" xmlns:xlink="http://www.w3.org/1999/xlink" xml:space="preserve" xmlns:serif="http://www.serif.com/" style="fill-rule:evenodd;clip-rule:evenodd;stroke-linejoin:round;stroke-miterlimit:2;">
    <g id="icon" transform="matrix(0.104205,0,0,0.104205,48,54.154)">
        <path d="M885.819,413.386C870.158,413.386 855.14,407.165 844.066,396.091C832.993,385.018 826.772,369.999 826.772,354.339L826.772,59.047C826.772,43.387 820.551,28.368 809.477,17.294C798.404,6.221 783.385,-0 767.725,-0L767.708,0C752.048,-0 737.029,6.221 725.956,17.294C714.882,28.368 708.661,43.387 708.661,59.047L708.661,354.339C708.661,369.999 702.44,385.018 691.367,396.091C680.293,407.165 665.275,413.386 649.614,413.386L649.598,413.386C633.938,413.386 618.919,407.165 607.846,396.091C596.772,385.018 590.551,369.999 590.551,354.339L590.551,236.212C590.551,220.552 584.33,205.533 573.257,194.46C562.183,183.386 547.164,177.165 531.504,177.165L531.488,177.165C515.828,177.165 500.809,183.386 489.735,194.46C478.662,205.533 472.441,220.552 472.441,236.212L472.441,472.449C472.441,488.109 466.22,503.128 455.146,514.202C444.073,525.275 429.054,531.496 413.394,531.496L413.378,531.496C397.717,531.496 382.699,525.275 371.625,514.202C360.552,503.128 354.331,488.109 354.331,472.449L354.331,472.433C354.331,456.773 348.11,441.754 337.036,430.68C325.963,419.607 310.944,413.386 295.284,413.386L295.267,413.386C279.607,413.386 264.588,419.607 253.515,430.68C242.441,441.754 236.22,456.773 236.22,472.433L236.22,590.559C236.22,606.219 229.999,621.238 218.926,632.312C207.853,643.385 192.834,649.606 177.173,649.606L177.157,649.606C161.497,649.606 146.478,643.385 135.405,632.312C124.331,621.238 118.11,606.22 118.11,590.559L118.11,590.543C118.11,574.883 111.889,559.864 100.816,548.791C89.742,537.717 74.723,531.496 59.063,531.496L59.047,531.496C43.387,531.496 28.368,537.717 17.294,548.791C6.221,559.864 -0,574.883 -0,590.543L-0,826.78C-0,842.44 6.221,857.459 17.294,868.532C28.368,879.606 43.387,885.827 59.047,885.827L59.063,885.827C74.723,885.827 89.742,879.606 100.816,868.532C111.889,857.459 118.11,842.44 118.11,826.78L118.11,826.764C118.11,811.103 124.331,796.084 135.405,785.011C146.478,773.938 161.497,767.717 177.157,767.717L177.173,767.717C192.834,767.717 207.853,773.938 218.926,785.011C229.999,796.085 236.22,811.103 236.22,826.764L236.22,944.89C236.22,960.55 242.441,975.569 253.515,986.643C264.588,997.716 279.607,1003.94 295.267,1003.94L295.284,1003.94C310.944,1003.94 325.963,997.716 337.036,986.643C348.11,975.569 354.331,960.55 354.331,944.89L354.331,944.874C354.331,929.214 360.552,914.195 371.625,903.121C382.699,892.048 397.717,885.827 413.378,885.827L413.394,885.827C429.054,885.827 444.073,892.048 455.146,903.121C466.22,914.195 472.441,929.214 472.441,944.874L472.441,1181.11C472.441,1196.77 478.662,1211.79 489.735,1222.86C500.809,1233.94 515.828,1240.16 531.488,1240.16L531.504,1240.16C547.164,1240.16 562.183,1233.94 573.257,1222.86C584.33,1211.79 590.551,1196.77 590.551,1181.11L590.551,1062.98C590.551,1047.32 596.772,1032.31 607.846,1021.23C618.919,1010.16 633.938,1003.94 649.598,1003.94L649.614,1003.94C665.275,1003.94 680.293,1010.16 691.367,1021.23C702.44,1032.31 708.661,1047.32 708.661,1062.98L708.661,1358.28C708.661,1373.94 714.882,1388.95 725.956,1400.03C737.029,1411.1 752.048,1417.32 767.708,1417.32L767.725,1417.32C783.385,1417.32 798.404,1411.1 809.477,1400.03C820.551,1388.95 826.772,1373.94 826.772,1358.28L826.772,1062.98C826.772,1047.32 832.993,1032.31 844.066,1021.23C855.14,1010.16 870.158,1003.94 885.819,1003.94L885.835,1003.94C901.495,1003.94 916.514,1010.16 927.587,1021.23C938.661,1032.31 944.882,1047.32 944.882,1062.98L944.882,1181.11C944.882,1196.77 951.103,1211.79 962.176,1222.86C973.25,1233.94 988.269,1240.16 1003.93,1240.16L1003.95,1240.16C1019.61,1240.16 1034.62,1233.94 1045.7,1222.86C1056.77,1211.79 1062.99,1196.77 1062.99,1181.11L1062.99,944.874C1062.99,929.214 1069.21,914.195 1080.29,903.121C1091.36,892.048 1106.38,885.827 1122.04,885.827L1122.06,885.827C1137.72,885.827 1152.73,892.048 1163.81,903.121C1174.88,914.195 1181.1,929.214 1181.1,944.874L1181.1,944.89C1181.1,960.55 1187.32,975.569 1198.4,986.643C1209.47,997.716 1224.49,1003.94 1240.15,1003.94L1240.17,1003.94C1255.83,1003.94 1270.85,997.716 1281.92,986.643C1292.99,975.569 1299.21,960.55 1299.21,944.89L1299.21,826.764C1299.21,811.103 1305.43,796.085 1316.51,785.011C1327.58,773.938 1342.6,767.717 1358.26,767.717L1358.28,767.717C1373.94,767.717 1388.95,773.938 1400.03,785.011C1411.1,796.084 1417.32,811.103 1417.32,826.764L1417.32,826.78C1417.32,842.44 1423.54,857.459 1434.62,868.532C1445.69,879.606 1460.71,885.827 1476.37,885.827L1476.39,885.827C1492.05,885.827 1507.07,879.606 1518.14,868.532C1529.21,857.459 1535.43,842.44 1535.43,826.78L1535.43,590.543C1535.43,574.883 1529.21,559.864 1518.14,548.791C1507.07,537.717 1492.05,531.496 1476.39,531.496L1476.37,531.496C1460.71,531.496 1445.69,537.717 1434.62,548.791C1423.54,559.864 1417.32,574.883 1417.32,590.543L1417.32,590.559C1417.32,606.22 1411.1,621.238 1400.03,632.312C1388.95,643.385 1373.94,649.606 1358.28,649.606L1358.26,649.606C1342.6,649.606 1327.58,643.385 1316.51,632.312C1305.43,621.238 1299.21,606.219 1299.21,590.559L1299.21,472.433C1299.21,456.773 1292.99,441.754 1281.92,430.68C1270.85,419.607 1255.83,413.386 1240.17,413.386L1240.15,413.386C1224.49,413.386 1209.47,419.607 1198.4,430.68C1187.32,441.754 1181.1,456.773 1181.1,472.433L1181.1,472.449C1181.1,488.109 1174.88,503.128 1163.81,514.202C1152.73,525.275 1137.72,531.496 1122.06,531.496L1122.04,531.496C1106.38,531.496 1091.36,525.275 1080.29,514.202C1069.21,503.128 1062.99,488.109 1062.99,472.449L1062.99,236.212C1062.99,220.552 1056.77,205.533 1045.7,194.46C1034.62,183.386 1019.61,177.165 1003.95,177.165L1003.93,177.165C988.269,177.165 973.25,183.386 962.176,194.46C951.103,205.533 944.882,220.552 944.882,236.212L944.882,354.339C944.882,369.999 938.661,385.018 927.587,396.091C916.514,407.165 901.495,413.386 885.835,413.386L885.819,413.386Z"/>
    </g>
</svg>
