<?xml version="1.0" encoding="UTF-8" standalone="no"?>
<!DOCTYPE svg PUBLIC "-//W3C//DTD SVG 1.1//EN" "http://www.w3.org/Graphics/SVG/1.1/DTD/svg11.dtd">
<svg width="100%" height="100%" viewBox="0 0 256 256" version="1.1" xmlns="http://www.w3.org/2000/svg" xmlns:xlink="http://www.w3.org/1999/xlink" xml:space="preserve" xmlns:serif="http://www.serif.com/" style="fill-rule:evenodd;clip-rule:evenodd;stroke-linejoin:round;stroke-miterlimit:2;">
    <path id="remove" d="M99.716,122.343C101.216,123.843 102.059,125.878 102.059,128C102.059,130.122 101.216,132.157 99.716,133.657C90.06,143.312 71.431,161.941 71.431,161.941C65.187,168.185 65.187,178.324 71.431,184.569C77.676,190.813 87.815,190.813 94.059,184.569C94.059,184.569 112.688,165.94 122.343,156.284C123.843,154.784 125.878,153.941 128,153.941C130.122,153.941 132.157,154.784 133.657,156.284C143.312,165.94 161.941,184.569 161.941,184.569C168.185,190.813 178.324,190.813 184.569,184.569C190.813,178.324 190.813,168.185 184.569,161.941C184.569,161.941 165.94,143.312 156.284,133.657C154.784,132.157 153.941,130.122 153.941,128C153.941,125.878 154.784,123.843 156.284,122.343C165.94,112.688 184.569,94.059 184.569,94.059C190.813,87.815 190.813,77.676 184.569,71.431C178.324,65.187 168.185,65.187 161.941,71.431C161.941,71.431 143.312,90.06 133.657,99.716C132.157,101.216 130.122,102.059 128,102.059C125.878,102.059 123.843,101.216 122.343,99.716C112.688,90.06 94.059,71.431 94.059,71.431C87.815,65.187 77.676,65.187 71.431,71.431C65.187,77.676 65.187,87.815 71.431,94.059C71.431,94.059 90.06,112.688 99.716,122.343Z"/>
</svg>
