<?xml version="1.0" encoding="UTF-8" standalone="no"?>
<!DOCTYPE svg PUBLIC "-//W3C//DTD SVG 1.1//EN" "http://www.w3.org/Graphics/SVG/1.1/DTD/svg11.dtd">
<svg width="100%" height="100%" viewBox="0 0 256 256" version="1.1" xmlns="http://www.w3.org/2000/svg" xmlns:xlink="http://www.w3.org/1999/xlink" xml:space="preserve" xmlns:serif="http://www.serif.com/" style="fill-rule:evenodd;clip-rule:evenodd;stroke-linejoin:round;stroke-miterlimit:2;">
    <path id="pen" d="M48.76,214.192C46.832,214.532 44.859,213.91 43.474,212.526C42.09,211.141 41.468,209.168 41.808,207.24C43.667,196.709 46.852,178.66 48.923,166.926C49.311,164.723 50.894,162.919 53.028,162.246C55.161,161.573 57.492,162.144 59.074,163.726C68.256,172.907 83.093,187.744 92.274,196.926C93.856,198.508 94.427,200.839 93.754,202.972C93.081,205.106 91.277,206.689 89.074,207.077C77.34,209.148 59.291,212.333 48.76,214.192ZM75.674,137.9C70.988,142.586 70.988,150.184 75.674,154.87C83.068,162.264 93.736,172.932 101.13,180.326C105.816,185.012 113.414,185.012 118.1,180.326C137.969,160.457 187.327,111.099 207.196,91.23C211.882,86.544 211.882,78.946 207.196,74.26C199.802,66.866 189.134,56.198 181.74,48.804C177.054,44.118 169.456,44.118 164.77,48.804C144.901,68.673 95.543,118.031 75.674,137.9Z"/>
</svg>
