<?xml version="1.0" encoding="UTF-8" standalone="no"?>
<!DOCTYPE svg PUBLIC "-//W3C//DTD SVG 1.1//EN" "http://www.w3.org/Graphics/SVG/1.1/DTD/svg11.dtd">
<svg width="100%" height="100%" viewBox="0 0 256 256" version="1.1" xmlns="http://www.w3.org/2000/svg" xmlns:xlink="http://www.w3.org/1999/xlink" xml:space="preserve" xmlns:serif="http://www.serif.com/" style="fill-rule:evenodd;clip-rule:evenodd;stroke-linejoin:round;stroke-miterlimit:2;">
    <path id="remove" d="M83.806,119.161C88.687,124.043 88.687,131.957 83.806,136.839C68.719,151.925 39.612,181.033 39.612,181.033C29.855,190.79 29.855,206.632 39.612,216.388C49.368,226.145 65.21,226.145 74.967,216.388C74.967,216.388 104.075,187.281 119.161,172.194C124.043,167.313 131.957,167.313 136.839,172.194C151.925,187.281 181.033,216.388 181.033,216.388C190.79,226.145 206.632,226.145 216.388,216.388C226.145,206.632 226.145,190.79 216.388,181.033C216.388,181.033 187.281,151.925 172.194,136.839C167.313,131.957 167.313,124.043 172.194,119.161C187.281,104.075 216.388,74.967 216.388,74.967C226.145,65.21 226.145,49.368 216.388,39.612C206.632,29.855 190.79,29.855 181.033,39.612C181.033,39.612 151.925,68.719 136.839,83.806C131.957,88.687 124.043,88.687 119.161,83.806C104.075,68.719 74.967,39.612 74.967,39.612C65.21,29.855 49.368,29.855 39.612,39.612C29.855,49.368 29.855,65.21 39.612,74.967C39.612,74.967 68.719,104.075 83.806,119.161Z"/>
</svg>
