<?xml version="1.0" encoding="UTF-8" standalone="no"?>
<!DOCTYPE svg PUBLIC "-//W3C//DTD SVG 1.1//EN" "http://www.w3.org/Graphics/SVG/1.1/DTD/svg11.dtd">
<svg width="100%" height="100%" viewBox="0 0 256 256" version="1.1" xmlns="http://www.w3.org/2000/svg" xmlns:xlink="http://www.w3.org/1999/xlink" xml:space="preserve" xmlns:serif="http://www.serif.com/" style="fill-rule:evenodd;clip-rule:evenodd;stroke-linejoin:round;stroke-miterlimit:2;">
    <g id="vibrato" transform="matrix(0.387606,0,0,0.775212,43.0617,32.687)">
        <path d="M76.164,122.951C76.164,133.334 59.305,141.763 38.54,141.763C17.774,141.763 0.916,133.334 0.916,122.951C0.916,88.642 18.717,58.346 44.439,39.486C67.609,22.497 97.931,13.841 128.838,13.841C160.766,13.841 189.348,22.76 210.869,40.382C233.159,58.636 248.673,87.886 256.496,120.726C262.051,144.048 270.853,164.687 284.372,179.445C288.565,184.024 293.093,187.94 298.383,190.917C301.735,192.804 304.965,194.437 309.433,194.437C318.471,194.437 324.888,190.186 331.663,185.218C350.778,171.203 362.107,148.448 362.107,122.951C362.107,112.568 378.966,104.139 399.731,104.139C420.497,104.139 437.355,112.568 437.355,122.951C437.355,157.26 419.554,187.556 393.832,206.416C370.662,223.405 340.34,232.061 309.433,232.061C277.448,232.061 249.132,223.423 227.654,206.109C205.427,188.191 189.868,159.146 181.776,125.176C176.399,102.605 167.558,81.966 153.992,67.017C149.717,62.305 145.084,58.247 139.69,55.142C136.351,53.221 133.273,51.465 128.838,51.465C119.8,51.465 113.384,55.715 106.608,60.683C87.493,74.699 76.164,97.454 76.164,122.951Z"/>
    </g>
</svg>
